<svg xmlns="http://www.w3.org/2000/svg" xmlns:xlink="http://www.w3.org/1999/xlink" viewBox="0 0 1024 149"><defs><style>.cls-1{fill:none;}.cls-2{fill:#7e57c2;}.cls-3{fill:#311b92;}.cls-4{fill:#9575cd;}.cls-5{fill:#d1c4e9;}.cls-6{fill:#5e35b1;}.cls-7{clip-path:url(#clip-path);}.cls-8{fill:#512da8;}</style><clipPath id="clip-path"><path class="cls-1" d="M629.14,22.42c48.27,8.18,69.67,33.11,98.93,33.3,9,.07-61.63,1.74-71.07-2.72C602,27,619.65,20.81,629.14,22.42Z"/></clipPath></defs><title>landing graphic</title><g id="Layer_2" data-name="Layer 2"><g id="Layer_1-2" data-name="Layer 1"><path class="cls-2" d="M1024,125S919.39,65,758,65C568,65,376,125,0,125v24H1024Z"/><ellipse class="cls-3" cx="541.85" cy="94.45" rx="18.6" ry="15" transform="translate(62.36 363.91) rotate(-39.22)"/><ellipse class="cls-3" cx="751.85" cy="94.45" rx="18.6" ry="15" transform="translate(109.67 496.7) rotate(-39.22)"/><path class="cls-4" d="M443.84,88.82s.13-35,41.23-34.73c32.49.22,8.24-34.94,112.23-34.24,72,.48,95.77,35.64,130.77,35.87S796,67.18,795.83,91.18Z"/><path class="cls-5" d="M629.14,22.42c48.27,8.18,69.67,33.11,98.93,33.3,9,.07-61.63,1.74-71.07-2.72C602,27,619.65,20.81,629.14,22.42Z"/><ellipse class="cls-3" cx="708.85" cy="94.16" rx="18.6" ry="15" transform="translate(100.17 469.45) rotate(-39.22)"/><ellipse class="cls-5" cx="705.85" cy="96.16" rx="14.56" ry="11.74" transform="translate(98.23 468) rotate(-39.22)"/><ellipse class="cls-3" cx="498.85" cy="94.16" rx="18.6" ry="15" transform="translate(52.85 336.66) rotate(-39.22)"/><rect class="cls-4" y="111" width="1024" height="38"/><ellipse class="cls-5" cx="501.85" cy="94.16" rx="14.56" ry="11.74" transform="translate(53.53 338.55) rotate(-39.22)"/><path class="cls-6" d="M0,117S77.61,85,239,85c190,0,409,40,785,40v24H0Z"/><g class="cls-7"><circle class="cls-8" cx="671" cy="47" r="10"/><circle class="cls-2" cx="654" cy="50" r="13"/></g><path class="cls-5" d="M478.33,49s8.91-1,12.57-1,6.81-10-1-10C485.14,38,470,49,478.33,49Z"/><path class="cls-5" d="M681,20c0-5.54-71-20-126-20S428,23,444,23s55-8.54,71-8.54,4-9.61,53-9.61S681,28.31,681,20Z"/><path class="cls-5" d="M436,66.62c0,8.13-15,9.38-50,9.38s-86.5-9-109-9,22.13-6,52.13-6S352.25,71.62,371,71.62,436,59.75,436,66.62Z"/><path class="cls-5" d="M379,45c17,0,30,7,45,7s30,2,30-5-5-11-28-11-12,4-28,4S356,45,379,45Z"/></g></g></svg>